<?xml version="1.0" standalone="no"?>
<!DOCTYPE svg PUBLIC "-//W3C//DTD SVG 20010904//EN"
 "http://www.w3.org/TR/2001/REC-SVG-20010904/DTD/svg10.dtd">
<svg version="1.0" xmlns="http://www.w3.org/2000/svg"
 width="700.000000pt" height="700.000000pt" viewBox="0 0 700.000000 700.000000"
 preserveAspectRatio="xMidYMid meet">
<metadata>
Created by potrace 1.11, written by Peter Selinger 2001-2013
</metadata>
<g transform="translate(0.000000,700.000000) scale(0.100000,-0.100000)"
fill="#000000" stroke="none">
<path d="M1120 6993 c-90 -14 -230 -48 -287 -69 -322 -121 -568 -345 -709
-644 -26 -54 -73 -181 -79 -210 -2 -8 -8 -33 -13 -55 -6 -22 -15 -62 -19 -90
-4 -27 -8 -1121 -8 -2430 0 -1964 2 -2391 14 -2445 7 -36 15 -75 17 -88 16
-84 121 -330 159 -372 8 -9 15 -20 15 -24 0 -16 98 -135 170 -206 149 -146
353 -263 552 -315 173 -46 85 -44 2598 -42 1306 2 2391 6 2410 11 297 66 497
168 676 343 196 192 301 391 370 703 5 19 9 1104 11 2410 2 1944 0 2390 -11
2455 -80 476 -381 840 -829 1002 -38 13 -76 26 -85 28 -9 1 -35 8 -57 13 -22
6 -56 14 -75 18 -35 8 -4772 15 -4820 7z m4780 -232 c156 -29 299 -85 418
-165 74 -49 191 -159 237 -221 16 -22 32 -42 36 -45 14 -10 90 -160 115 -226
14 -38 35 -112 46 -164 20 -94 21 -116 21 -2420 0 -1279 -3 -2351 -7 -2382
l-7 -58 -52 0 c-82 0 -237 27 -323 56 -98 33 -170 68 -307 153 -199 123 -232
142 -316 181 -133 64 -262 100 -446 125 -49 7 -259 7 -335 1 -249 -22 -427
-88 -720 -270 l-155 -96 -17 38 c-99 213 -231 559 -233 611 -8 173 153 279
505 335 290 46 440 90 665 196 611 287 998 826 1114 1551 11 68 23 160 26 204
4 44 8 98 10 120 6 81 -49 141 -127 139 -43 -2 -44 -2 -170 -112 -188 -165
-420 -297 -590 -337 -65 -15 -189 -17 -245 -4 -76 17 -299 58 -348 64 -27 4
-57 8 -65 10 -62 17 -272 22 -372 10 -107 -13 -231 -51 -331 -101 -138 -71
-308 -216 -407 -349 -25 -33 -55 -71 -66 -84 l-22 -24 -13 24 c-44 84 -203
253 -319 339 -127 96 -300 169 -454 191 -72 10 -251 13 -316 5 -113 -13 -131
-16 -370 -61 -280 -53 -367 -43 -583 62 -133 65 -360 225 -437 308 -38 41 -94
66 -132 60 -77 -14 -110 -66 -103 -166 8 -113 19 -216 29 -269 2 -8 6 -37 11
-65 14 -92 54 -249 91 -360 144 -433 397 -769 760 -1010 218 -145 571 -288
789 -320 23 -3 50 -7 61 -9 12 -2 45 -7 74 -11 90 -11 180 -35 247 -66 24 -10
45 -19 49 -19 14 0 123 -83 142 -109 66 -89 67 -156 7 -361 -25 -85 -47 -162
-49 -170 -7 -24 -76 -214 -81 -218 -2 -2 -36 16 -75 40 -39 23 -79 48 -88 53
-9 6 -44 26 -77 46 -120 71 -224 113 -365 149 -65 16 -98 22 -205 36 -43 6
-273 5 -330 -1 -54 -5 -126 -17 -195 -30 -133 -26 -293 -99 -525 -242 -99 -60
-209 -124 -245 -141 -119 -57 -313 -102 -441 -102 -40 0 -49 3 -50 18 -1 9 -3
28 -6 42 -7 43 -8 4601 -1 4680 7 88 14 127 33 195 76 277 272 517 533 649 63
32 213 83 267 91 117 18 395 20 2490 19 1728 -1 2296 -4 2345 -13z"/>
<path d="M2475 6133 c-44 -13 -116 -35 -160 -47 -77 -23 -482 -146 -730 -221
-66 -21 -127 -39 -135 -40 -8 -2 -46 -14 -85 -25 -38 -12 -96 -29 -127 -38
-32 -9 -58 -20 -58 -25 0 -5 27 -100 61 -211 34 -110 70 -232 81 -271 11 -38
30 -101 43 -140 12 -38 60 -195 105 -348 69 -231 86 -277 99 -272 9 4 61 20
116 37 230 68 300 89 505 151 306 93 287 89 283 63 -1 -11 -12 -75 -23 -141
-24 -150 -30 -195 -24 -195 5 0 227 -34 299 -45 17 -3 62 -10 100 -16 39 -6
95 -14 125 -19 30 -5 87 -14 125 -20 39 -6 81 -12 95 -15 14 -2 43 -6 65 -10
22 -3 56 -8 75 -11 19 -3 89 -14 155 -24 66 -10 140 -22 165 -25 25 -3 52 -8
60 -10 8 -2 35 -7 60 -10 25 -3 57 -8 71 -10 l26 -5 28 172 c15 94 28 181 30
192 2 12 9 56 15 99 13 86 17 116 25 165 3 17 8 49 11 70 2 20 11 75 19 122 8
47 17 105 20 130 3 25 8 56 10 70 3 14 7 41 10 60 3 19 7 46 10 60 9 55 17
106 18 129 2 26 2 26 -84 36 -25 3 -56 8 -70 11 -24 5 -34 6 -119 19 -25 3
-58 8 -75 11 -16 3 -46 7 -65 10 -19 2 -60 9 -90 14 -30 5 -73 12 -95 15 -38
6 -154 24 -290 45 -33 5 -80 12 -105 16 -25 3 -52 8 -60 9 -8 2 -51 8 -95 15
-44 7 -87 13 -95 15 -8 1 -34 6 -57 10 l-42 7 -25 76 c-13 42 -30 97 -37 122
-7 25 -14 50 -15 55 -11 39 -65 209 -67 210 -1 2 -38 -8 -82 -22z"/>
<path d="M5497 5914 c-1 -1 -47 -4 -102 -8 -94 -6 -149 -10 -290 -20 -122 -10
-300 -22 -445 -31 -52 -3 -115 -8 -139 -10 -24 -3 -87 -7 -140 -11 -53 -3
-114 -8 -136 -10 -22 -1 -46 -3 -53 -3 -14 -1 -15 4 13 -363 2 -35 7 -103 10
-153 3 -49 8 -110 10 -135 2 -25 7 -92 10 -150 4 -58 8 -121 10 -140 2 -19 7
-84 11 -145 4 -60 8 -123 10 -140 1 -16 3 -40 3 -53 1 -23 2 -23 109 -17 59 4
123 8 142 10 19 2 80 7 135 10 55 4 118 8 140 10 22 2 94 6 160 10 66 4 127 9
136 10 9 2 74 6 145 10 71 3 140 8 154 10 14 3 68 7 120 11 93 6 161 11 188
13 11 1 12 21 7 99 -3 53 -8 111 -10 127 -3 17 -7 73 -10 125 -5 106 -14 229
-20 305 -2 28 -7 95 -11 150 -3 55 -7 116 -9 135 -2 19 -7 87 -11 150 -4 63
-8 122 -10 130 -1 8 -3 30 -3 48 l-1 32 -61 -2 c-33 -2 -61 -4 -62 -4z"/>
</g>
</svg>
